<?xml version="1.0" encoding="utf-8"?>
<!-- Generator: Adobe Illustrator 26.3.0, SVG Export Plug-In . SVG Version: 6.00 Build 0)  -->
<svg version="1.1" id="Layer_1" xmlns="http://www.w3.org/2000/svg" xmlns:xlink="http://www.w3.org/1999/xlink" x="0px" y="0px"
	 width="300px" height="78px" viewBox="0 0 300 78" style="enable-background:new 0 0 300 78;" xml:space="preserve">
<style type="text/css">
	.st0{fill:#231F20;}
	.st1{fill:#231F20;stroke:#231F20;stroke-width:2;stroke-miterlimit:10;}
	.st2{fill:#231F20;stroke:#231F20;stroke-miterlimit:10;}
</style>
<g>
	<g>
		<g>
			<path class="st0" d="M88.6,49.9V35.1h5.9c3,0,4.6,2,4.6,4.4c0,2.4-1.7,4.4-4.6,4.4h-4.1v5.9H88.6z M97.3,39.6
				c0-1.7-1.2-2.8-2.9-2.8h-3.9v5.6h3.9C96.1,42.4,97.3,41.3,97.3,39.6z"/>
			<path class="st0" d="M90.8,50.2h-2.4V34.9h6.2c2.9,0,4.9,1.9,4.9,4.7c0,2.8-2,4.7-4.9,4.7h-3.8V50.2z M88.9,49.6h1.3v-5.9h4.4
				c2.6,0,4.3-1.7,4.3-4.2c0-2.1-1.3-4.2-4.3-4.2h-5.6V49.6z M94.3,42.7h-4.2v-6.2h4.2c1.9,0,3.2,1.3,3.2,3.1
				C97.6,41.4,96.2,42.7,94.3,42.7z M90.8,42.1h3.6c1.6,0,2.7-1,2.7-2.5c0-1.5-1.1-2.5-2.7-2.5h-3.6V42.1z"/>
		</g>
		<g>
			<path class="st0" d="M109,49.9v-1.6c-0.8,1.1-2.1,1.9-3.6,1.9c-2.8,0-4.8-2.1-4.8-5.6c0-3.4,2-5.6,4.8-5.6c1.4,0,2.7,0.7,3.6,1.9
				v-1.6h1.7v10.7H109z M109,47v-4.8c-0.6-0.9-1.9-1.7-3.2-1.7c-2.2,0-3.5,1.8-3.5,4.1c0,2.4,1.3,4.1,3.5,4.1
				C107.2,48.7,108.5,47.9,109,47z"/>
			<path class="st0" d="M105.4,50.4c-3,0-5-2.4-5-5.9c0-3.5,2-5.9,5-5.9c1.3,0,2.4,0.5,3.3,1.4v-1.1h2.2v11.2h-2.2v-1.1
				C107.9,49.9,106.7,50.4,105.4,50.4z M105.4,39.2c-2.7,0-4.5,2.1-4.5,5.3c0,3.2,1.8,5.3,4.5,5.3c1.3,0,2.6-0.7,3.4-1.7l0.5-0.7
				v2.2h1.1V39.5h-1.1v2.2l-0.5-0.7C108,39.9,106.8,39.2,105.4,39.2z M105.8,49c-2.2,0-3.7-1.8-3.7-4.4c0-2.6,1.5-4.4,3.7-4.4
				c1.3,0,2.8,0.8,3.4,1.9l0,0.1v5l0,0.1C108.6,48.2,107.2,49,105.8,49z M105.8,40.7c-1.9,0-3.2,1.5-3.2,3.9c0,2.3,1.2,3.8,3.2,3.8
				c1.1,0,2.3-0.6,2.9-1.5v-4.7C108.2,41.4,106.9,40.7,105.8,40.7z"/>
		</g>
		<g>
			<path class="st0" d="M114,49.9V39.2h1.7v1.7c0.9-1.1,2.1-1.9,3.6-1.9v1.7c-0.2,0-0.4,0-0.6,0c-1,0-2.4,0.8-2.9,1.7v7.6H114z"/>
			<path class="st0" d="M116,50.2h-2.2V38.9h2.2v1.2c0.9-1,2.1-1.5,3.3-1.5h0.3V41l-0.3,0c-0.2,0-0.4,0-0.6,0
				c-0.9,0-2.2,0.7-2.6,1.5V50.2z M114.3,49.6h1.1v-7.4l0-0.1c0.5-1,2.1-1.8,3.2-1.8c0.1,0,0.2,0,0.4,0v-1.1
				c-1.5,0.1-2.6,1.2-3.1,1.8l-0.5,0.6v-2.2h-1.1V49.6z"/>
		</g>
		<g>
			<path class="st0" d="M121.6,47.7v-7h-1.8v-1.5h1.8v-2.9h1.7v2.9h2.2v1.5h-2.2v6.6c0,0.8,0.4,1.4,1.1,1.4c0.5,0,0.9-0.2,1.1-0.5
				l0.5,1.3c-0.4,0.4-1,0.7-2,0.7C122.4,50.2,121.6,49.3,121.6,47.7z"/>
			<path class="st0" d="M124,50.4c-1.7,0-2.7-1-2.7-2.8V41h-1.8v-2h1.8V36h2.2v2.9h2.2v2h-2.2v6.4c0,0.3,0.1,1.1,0.8,1.1
				c0.4,0,0.8-0.2,0.9-0.4l0.3-0.3l0.7,1.9l-0.1,0.1C125.7,50.2,124.9,50.4,124,50.4z M120.2,40.4h1.8v7.3c0,1.5,0.7,2.2,2.1,2.2
				c0.7,0,1.2-0.2,1.6-0.5l-0.3-0.7c-0.3,0.2-0.6,0.3-1,0.3c-0.8,0-1.3-0.6-1.3-1.7v-6.9h2.2v-0.9H123v-2.9h-1.1v2.9h-1.8V40.4z"/>
		</g>
		<g>
			<path class="st0" d="M127.5,36.6c0-0.6,0.5-1.1,1.1-1.1c0.6,0,1.1,0.5,1.1,1.1c0,0.6-0.5,1.1-1.1,1.1
				C128,37.7,127.5,37.2,127.5,36.6z M127.8,49.9V39.2h1.7v10.7H127.8z"/>
			<path class="st0" d="M129.8,50.2h-2.2V38.9h2.2V50.2z M128.1,49.6h1.1V39.5h-1.1V49.6z M128.7,38c-0.8,0-1.4-0.6-1.4-1.4
				c0-0.8,0.6-1.4,1.4-1.4c0.8,0,1.4,0.6,1.4,1.4C130,37.4,129.4,38,128.7,38z M128.7,35.7c-0.5,0-0.8,0.4-0.8,0.8
				c0,0.5,0.4,0.8,0.8,0.8c0.5,0,0.8-0.4,0.8-0.8C129.5,36.1,129.1,35.7,128.7,35.7z"/>
		</g>
		<g>
			<path class="st0" d="M132.2,44.5c0-3.2,2.1-5.6,5.3-5.6c1.9,0,3.1,0.8,3.9,1.9l-1.1,1c-0.7-1-1.6-1.4-2.7-1.4
				c-2.3,0-3.7,1.7-3.7,4.1s1.4,4.1,3.7,4.1c1.1,0,2-0.4,2.7-1.4l1.1,1c-0.8,1.1-2,1.9-3.9,1.9C134.3,50.2,132.2,47.7,132.2,44.5z"
				/>
			<path class="st0" d="M137.5,50.4c-3.3,0-5.6-2.5-5.6-5.9c0-3.4,2.4-5.9,5.6-5.9c1.8,0,3.1,0.6,4.1,2l0.2,0.2l-1.5,1.4l-0.2-0.3
				c-0.6-0.9-1.4-1.3-2.5-1.3c-2,0-3.4,1.5-3.4,3.8c0,2.3,1.4,3.9,3.4,3.9c1,0,1.9-0.4,2.5-1.3l0.2-0.3l1.5,1.4l-0.2,0.2
				C140.6,49.8,139.3,50.4,137.5,50.4z M137.5,39.2c-2.9,0-5.1,2.2-5.1,5.3c0,3.1,2.1,5.3,5.1,5.3c1.5,0,2.6-0.5,3.5-1.5l-0.7-0.6
				c-0.7,0.8-1.6,1.3-2.8,1.3c-2.3,0-4-1.8-4-4.4c0-2.6,1.6-4.4,4-4.4c1.1,0,2.1,0.4,2.8,1.2l0.7-0.6
				C140.1,39.7,139,39.2,137.5,39.2z"/>
		</g>
		<g>
			<path class="st0" d="M143.5,36.6c0-0.6,0.5-1.1,1.1-1.1c0.6,0,1.1,0.5,1.1,1.1c0,0.6-0.5,1.1-1.1,1.1
				C144,37.7,143.5,37.2,143.5,36.6z M143.8,49.9V39.2h1.7v10.7H143.8z"/>
			<path class="st0" d="M145.7,50.2h-2.2V38.9h2.2V50.2z M144,49.6h1.1V39.5H144V49.6z M144.6,38c-0.8,0-1.4-0.6-1.4-1.4
				c0-0.8,0.6-1.4,1.4-1.4c0.8,0,1.4,0.6,1.4,1.4C146,37.4,145.4,38,144.6,38z M144.6,35.7c-0.5,0-0.8,0.4-0.8,0.8
				c0,0.5,0.4,0.8,0.8,0.8c0.5,0,0.8-0.4,0.8-0.8C145.4,36.1,145.1,35.7,144.6,35.7z"/>
		</g>
		<g>
			<path class="st0" d="M150.4,48.3V54h-1.7V39.2h1.7v1.6c0.8-1.1,2.1-1.9,3.6-1.9c2.8,0,4.8,2.1,4.8,5.6c0,3.5-1.9,5.6-4.8,5.6
				C152.5,50.2,151.3,49.5,150.4,48.3z M157,44.5c0-2.4-1.3-4.1-3.4-4.1c-1.3,0-2.6,0.8-3.2,1.7V47c0.6,0.9,1.9,1.7,3.2,1.7
				C155.7,48.7,157,46.9,157,44.5z"/>
			<path class="st0" d="M150.7,54.3h-2.2V38.9h2.2V40c0.9-0.9,2.1-1.4,3.3-1.4c3.1,0,5,2.3,5,5.9c0,3.5-2,5.9-5,5.9
				c-1.3,0-2.4-0.5-3.3-1.4V54.3z M149,53.7h1.1v-6.2l0.5,0.7c0.9,1.1,2.1,1.8,3.4,1.8c2.7,0,4.5-2.1,4.5-5.3c0-3.2-1.8-5.3-4.5-5.3
				c-1.3,0-2.6,0.7-3.4,1.7l-0.5,0.7v-2.2H149V53.7z M153.6,49c-1.3,0-2.8-0.8-3.4-1.9l0-0.1v-5l0-0.1c0.7-1.1,2.1-1.8,3.4-1.8
				c2.2,0,3.7,1.8,3.7,4.4C157.3,47.2,155.8,49,153.6,49z M150.7,46.9c0.6,0.9,1.8,1.5,2.9,1.5c1.9,0,3.1-1.5,3.1-3.9
				c0-2.3-1.2-3.8-3.1-3.8c-1.1,0-2.3,0.6-2.9,1.5V46.9z"/>
		</g>
		<g>
			<path class="st0" d="M169.1,49.9v-1.6c-0.8,1.1-2.1,1.9-3.6,1.9c-2.8,0-4.8-2.1-4.8-5.6c0-3.4,2-5.6,4.8-5.6
				c1.4,0,2.7,0.7,3.6,1.9v-1.6h1.7v10.7H169.1z M169.1,47v-4.8c-0.6-0.9-1.9-1.7-3.2-1.7c-2.2,0-3.5,1.8-3.5,4.1
				c0,2.4,1.3,4.1,3.5,4.1C167.3,48.7,168.6,47.9,169.1,47z"/>
			<path class="st0" d="M165.5,50.4c-3,0-5-2.4-5-5.9c0-3.5,2-5.9,5-5.9c1.3,0,2.4,0.5,3.3,1.4v-1.1h2.2v11.2h-2.2v-1.1
				C168,49.9,166.8,50.4,165.5,50.4z M165.5,39.2c-2.7,0-4.5,2.1-4.5,5.3c0,3.2,1.8,5.3,4.5,5.3c1.3,0,2.6-0.7,3.4-1.7l0.5-0.7v2.2
				h1.1V39.5h-1.1v2.2l-0.5-0.7C168.1,39.9,166.9,39.2,165.5,39.2z M165.9,49c-2.2,0-3.7-1.8-3.7-4.4c0-2.6,1.5-4.4,3.7-4.4
				c1.3,0,2.8,0.8,3.4,1.9l0,0.1v5l0,0.1C168.7,48.2,167.3,49,165.9,49z M165.9,40.7c-1.9,0-3.2,1.5-3.2,3.9c0,2.3,1.2,3.8,3.2,3.8
				c1.1,0,2.3-0.6,2.9-1.5v-4.7C168.3,41.4,167,40.7,165.9,40.7z"/>
		</g>
		<g>
			<path class="st0" d="M173.5,44.5c0-3.2,2.1-5.6,5.3-5.6c1.9,0,3.1,0.8,3.9,1.9l-1.1,1c-0.7-1-1.6-1.4-2.7-1.4
				c-2.3,0-3.7,1.7-3.7,4.1s1.4,4.1,3.7,4.1c1.1,0,2-0.4,2.7-1.4l1.1,1c-0.8,1.1-2,1.9-3.9,1.9C175.6,50.2,173.5,47.7,173.5,44.5z"
				/>
			<path class="st0" d="M178.8,50.4c-3.3,0-5.6-2.5-5.6-5.9c0-3.4,2.4-5.9,5.6-5.9c1.8,0,3.1,0.6,4.1,2l0.2,0.2l-1.5,1.4l-0.2-0.3
				c-0.6-0.9-1.4-1.3-2.5-1.3c-2,0-3.4,1.5-3.4,3.8c0,2.3,1.4,3.9,3.4,3.9c1,0,1.9-0.4,2.5-1.3l0.2-0.2l1.5,1.4l-0.2,0.2
				C181.9,49.8,180.6,50.4,178.8,50.4z M178.8,39.2c-2.9,0-5.1,2.2-5.1,5.3c0,3.1,2.1,5.3,5.1,5.3c1.5,0,2.6-0.5,3.5-1.5l-0.7-0.6
				c-0.7,0.8-1.6,1.3-2.8,1.3c-2.3,0-4-1.8-4-4.4c0-2.6,1.6-4.4,4-4.4c1.1,0,2.1,0.4,2.8,1.2l0.7-0.6
				C181.5,39.7,180.3,39.2,178.8,39.2z"/>
		</g>
		<g>
			<path class="st0" d="M184.8,36.6c0-0.6,0.5-1.1,1.1-1.1c0.6,0,1.1,0.5,1.1,1.1c0,0.6-0.5,1.1-1.1,1.1
				C185.3,37.7,184.8,37.2,184.8,36.6z M185.1,49.9V39.2h1.7v10.7H185.1z"/>
			<path class="st0" d="M187,50.2h-2.2V38.9h2.2V50.2z M185.4,49.6h1.1V39.5h-1.1V49.6z M185.9,38c-0.8,0-1.4-0.6-1.4-1.4
				c0-0.8,0.6-1.4,1.4-1.4c0.8,0,1.4,0.6,1.4,1.4C187.3,37.4,186.7,38,185.9,38z M185.9,35.7c-0.5,0-0.8,0.4-0.8,0.8
				c0,0.5,0.4,0.8,0.8,0.8c0.5,0,0.8-0.4,0.8-0.8C186.7,36.1,186.4,35.7,185.9,35.7z"/>
		</g>
		<g>
			<path class="st0" d="M189.4,44.5c0-3.1,2-5.6,5.3-5.6s5.3,2.5,5.3,5.6s-2,5.6-5.3,5.6S189.4,47.6,189.4,44.5z M198.3,44.5
				c0-2.2-1.3-4.1-3.5-4.1s-3.5,1.9-3.5,4.1c0,2.2,1.3,4.1,3.5,4.1S198.3,46.7,198.3,44.5z M194.5,37.6h-1.3l3.3-3.2h1.7L194.5,37.6
				z"/>
			<path class="st0" d="M194.7,50.4c-3.2,0-5.6-2.5-5.6-5.9c0-3.4,2.3-5.9,5.6-5.9c3.2,0,5.6,2.5,5.6,5.9
				C200.3,48,198,50.4,194.7,50.4z M194.7,39.2c-2.9,0-5,2.2-5,5.3c0,3.1,2.1,5.3,5,5.3c2.9,0,5-2.2,5-5.3
				C199.7,41.4,197.7,39.2,194.7,39.2z M194.7,49c-2.2,0-3.8-1.8-3.8-4.4c0-3,2-4.4,3.8-4.4c1.8,0,3.8,1.4,3.8,4.4
				C198.5,47.1,197,49,194.7,49z M194.7,40.7c-2.2,0-3.3,2-3.3,3.8c0,1.9,1,3.9,3.3,3.9s3.3-2,3.3-3.9C198,42.7,197,40.7,194.7,40.7
				z M194.6,37.9h-2.1l3.9-3.7h2.6L194.6,37.9z M194,37.3h0.5l3.1-2.6h-0.8L194,37.3z"/>
		</g>
		<g>
			<path class="st0" d="M209.9,49.9v-7c0-1.9-1-2.5-2.4-2.5c-1.3,0-2.5,0.8-3.2,1.7v7.8h-1.7V39.2h1.7v1.5c0.8-0.9,2.2-1.8,3.8-1.8
				c2.2,0,3.4,1.1,3.4,3.5v7.5H209.9z"/>
			<path class="st0" d="M211.9,50.2h-2.2v-7.3c0-1.5-0.6-2.2-2.1-2.2c-1.2,0-2.3,0.7-2.9,1.5v8h-2.2V38.9h2.2v1.1
				c0.8-0.7,2.1-1.4,3.5-1.4c2.4,0,3.7,1.3,3.7,3.7V50.2z M210.2,49.6h1.1v-7.2c0-2.1-1-3.2-3.1-3.2c-1.5,0-2.9,0.9-3.6,1.7
				l-0.5,0.6v-2H203v10.1h1.1V42l0.1-0.1c0.7-0.9,2-1.8,3.4-1.8c1.8,0,2.7,0.9,2.7,2.8V49.6z"/>
		</g>
		<g>
			<path class="st0" d="M220.1,42.5c0-4.5,3.3-7.6,7.6-7.6c2.6,0,4.4,1.2,5.6,2.9l-1.5,0.9c-0.8-1.3-2.4-2.1-4.1-2.1
				c-3.2,0-5.7,2.5-5.7,6c0,3.5,2.5,6,5.7,6c1.7,0,3.2-0.9,4.1-2.1l1.5,0.8c-1.2,1.7-3,2.9-5.6,2.9
				C223.5,50.2,220.1,47.1,220.1,42.5z"/>
			<path class="st0" d="M227.7,50.4c-4.6,0-7.9-3.3-7.9-7.9s3.3-7.9,7.9-7.9c2.4,0,4.4,1.1,5.8,3l0.2,0.3l-2,1.1l-0.1-0.2
				c-0.8-1.2-2.3-2-3.8-2c-3.1,0-5.4,2.4-5.4,5.7c0,3.3,2.3,5.7,5.4,5.7c1.5,0,3-0.8,3.8-2l0.1-0.2l2.1,1.1l-0.2,0.3
				C232.1,49.4,230.1,50.4,227.7,50.4z M227.7,35.2c-4.2,0-7.3,3.1-7.3,7.4s3.1,7.4,7.3,7.4c2.1,0,3.8-0.8,5.2-2.6l-1-0.6
				c-1,1.3-2.6,2.1-4.2,2.1c-3.4,0-6-2.7-6-6.3c0-3.6,2.5-6.3,6-6.3c1.6,0,3.2,0.8,4.2,2.1l1-0.6C231.6,36.1,229.8,35.2,227.7,35.2z
				"/>
		</g>
		<g>
			<path class="st0" d="M242.8,49.9v-1.5c-0.8,0.9-2.2,1.8-3.8,1.8c-2.2,0-3.4-1.1-3.4-3.4v-7.5h1.7v7c0,1.9,1,2.4,2.4,2.4
				c1.3,0,2.5-0.8,3.1-1.6v-7.9h1.7v10.7H242.8z"/>
			<path class="st0" d="M239,50.4c-2.4,0-3.7-1.3-3.7-3.7v-7.8h2.2v7.3c0,1.5,0.6,2.2,2.1,2.2c1.2,0,2.3-0.7,2.9-1.4v-8h2.2v11.2
				h-2.2v-1.1C241.7,49.8,240.4,50.4,239,50.4z M235.9,39.5v7.3c0,2.1,1,3.1,3.1,3.1c1.6,0,2.9-0.9,3.6-1.7l0.5-0.6v2h1.1V39.5h-1.1
				v7.7l-0.1,0.1c-0.6,0.9-1.9,1.7-3.4,1.7c-1.8,0-2.7-0.9-2.7-2.7v-6.8H235.9z"/>
		</g>
		<g>
			<path class="st0" d="M247.8,47.7V35.1h1.7v12.2c0,0.8,0.4,1.4,1.1,1.4c0.5,0,0.9-0.2,1.1-0.5l0.5,1.3c-0.4,0.4-1,0.7-2,0.7
				C248.6,50.2,247.8,49.3,247.8,47.7z"/>
			<path class="st0" d="M250.2,50.4c-1.7,0-2.6-1-2.6-2.8V34.9h2.2v12.4c0,0.4,0.1,1.1,0.8,1.1c0.4,0,0.7-0.2,0.9-0.4l0.3-0.4
				l0.8,1.9l-0.1,0.1C251.8,50.2,251.1,50.4,250.2,50.4z M248.1,35.4v12.2c0,1.5,0.7,2.2,2.1,2.2c0.9,0,1.3-0.2,1.7-0.5l-0.3-0.7
				c-0.3,0.2-0.6,0.3-1,0.3c-0.8,0-1.4-0.6-1.4-1.7V35.4H248.1z"/>
		</g>
		<g>
			<path class="st0" d="M254.1,47.7v-7h-1.8v-1.5h1.8v-2.9h1.7v2.9h2.2v1.5h-2.2v6.6c0,0.8,0.4,1.4,1.1,1.4c0.5,0,0.9-0.2,1.1-0.5
				l0.5,1.3c-0.4,0.4-1,0.7-2,0.7C254.9,50.2,254.1,49.3,254.1,47.7z"/>
			<path class="st0" d="M256.5,50.4c-1.7,0-2.7-1-2.7-2.8V41H252v-2h1.8V36h2.2v2.9h2.2v2H256v6.4c0,0.3,0.1,1.1,0.8,1.1
				c0.4,0,0.8-0.2,0.9-0.4l0.3-0.3l0.7,1.9l-0.1,0.1C258.1,50.2,257.4,50.4,256.5,50.4z M252.6,40.4h1.8v7.3c0,1.5,0.7,2.2,2.1,2.2
				c0.7,0,1.2-0.2,1.6-0.5l-0.3-0.7c-0.3,0.2-0.6,0.3-1,0.3c-0.8,0-1.3-0.6-1.3-1.7v-6.9h2.2v-0.9h-2.2v-2.9h-1.1v2.9h-1.8V40.4z"/>
		</g>
		<g>
			<path class="st0" d="M267.5,49.9v-1.5c-0.8,0.9-2.2,1.8-3.8,1.8c-2.2,0-3.4-1.1-3.4-3.4v-7.5h1.7v7c0,1.9,1,2.4,2.4,2.4
				c1.3,0,2.5-0.8,3.1-1.6v-7.9h1.7v10.7H267.5z"/>
			<path class="st0" d="M263.7,50.4c-2.4,0-3.7-1.3-3.7-3.7v-7.8h2.2v7.3c0,1.5,0.6,2.2,2.1,2.2c1.2,0,2.3-0.7,2.9-1.4v-8h2.2v11.2
				h-2.2v-1.1C266.3,49.8,265.1,50.4,263.7,50.4z M260.5,39.5v7.3c0,2.1,1,3.1,3.1,3.1c1.6,0,2.9-0.9,3.6-1.7l0.5-0.6v2h1.1V39.5
				h-1.1v7.7l-0.1,0.1c-0.6,0.9-1.9,1.7-3.4,1.7c-1.8,0-2.7-0.9-2.7-2.7v-6.8H260.5z"/>
		</g>
		<g>
			<path class="st0" d="M272.4,49.9V39.2h1.7v1.7c0.9-1.1,2.1-1.9,3.6-1.9v1.7c-0.2,0-0.4,0-0.6,0c-1,0-2.4,0.8-2.9,1.7v7.6H272.4z"
				/>
			<path class="st0" d="M274.4,50.2h-2.2V38.9h2.2v1.2c0.9-1,2.1-1.5,3.3-1.5h0.3V41l-0.3,0c-0.2,0-0.4,0-0.6,0
				c-0.9,0-2.2,0.7-2.6,1.5V50.2z M272.7,49.6h1.1v-7.4l0-0.1c0.5-1,2.1-1.8,3.2-1.8c0.1,0,0.2,0,0.4,0v-1.1
				c-1.5,0.1-2.6,1.2-3.1,1.8l-0.5,0.6v-2.2h-1.1V49.6z"/>
		</g>
		<g>
			<path class="st0" d="M287.5,49.9v-1.6c-0.8,1.1-2.1,1.9-3.6,1.9c-2.8,0-4.8-2.1-4.8-5.6c0-3.4,2-5.6,4.8-5.6
				c1.4,0,2.7,0.7,3.6,1.9v-1.6h1.7v10.7H287.5z M287.5,47v-4.8c-0.6-0.9-1.9-1.7-3.2-1.7c-2.2,0-3.5,1.8-3.5,4.1
				c0,2.4,1.3,4.1,3.5,4.1C285.6,48.7,286.9,47.9,287.5,47z"/>
			<path class="st0" d="M283.9,50.4c-3,0-5-2.4-5-5.9c0-3.5,2-5.9,5-5.9c1.3,0,2.4,0.5,3.3,1.4v-1.1h2.2v11.2h-2.2v-1.1
				C286.3,49.9,285.1,50.4,283.9,50.4z M283.9,39.2c-2.7,0-4.5,2.1-4.5,5.3c0,3.2,1.8,5.3,4.5,5.3c1.3,0,2.6-0.7,3.4-1.7l0.5-0.7
				v2.2h1.1V39.5h-1.1v2.2l-0.5-0.7C286.4,39.9,285.2,39.2,283.9,39.2z M284.3,49c-2.2,0-3.7-1.8-3.7-4.4c0-2.6,1.5-4.4,3.7-4.4
				c1.3,0,2.8,0.8,3.4,1.9l0,0.1v5l0,0.1C287.1,48.2,285.6,49,284.3,49z M284.3,40.7c-1.9,0-3.2,1.5-3.2,3.9c0,2.3,1.2,3.8,3.2,3.8
				c1.1,0,2.3-0.6,2.9-1.5v-4.7C286.6,41.4,285.4,40.7,284.3,40.7z"/>
		</g>
		<g>
			<path class="st0" d="M292.5,47.7V35.1h1.7v12.2c0,0.8,0.4,1.4,1.1,1.4c0.5,0,0.9-0.2,1.1-0.5l0.5,1.3c-0.4,0.4-1,0.7-2,0.7
				C293.3,50.2,292.5,49.3,292.5,47.7z"/>
			<path class="st0" d="M294.8,50.4c-1.7,0-2.6-1-2.6-2.8V34.9h2.2v12.4c0,0.4,0.1,1.1,0.8,1.1c0.4,0,0.7-0.2,0.9-0.4l0.3-0.4
				l0.8,1.9l-0.1,0.1C296.4,50.2,295.7,50.4,294.8,50.4z M292.7,35.4v12.2c0,1.5,0.7,2.2,2.1,2.2c0.9,0,1.3-0.2,1.7-0.5l-0.3-0.7
				c-0.3,0.2-0.6,0.3-1,0.3c-0.8,0-1.4-0.6-1.4-1.7V35.4H292.7z"/>
		</g>
	</g>
	<g>
		<g>
			<polygon class="st1" points="107.2,26.7 107.2,8.4 99.8,26.7 98.7,26.7 91.3,8.4 91.3,26.7 88.6,26.7 88.6,4.9 92.5,4.9 
				99.3,21.7 106,4.9 109.9,4.9 109.9,26.7 			"/>
			<polygon class="st1" points="117,26.7 117,4.9 131.2,4.9 131.2,7.4 119.7,7.4 119.7,14.4 131,14.4 131,16.8 119.7,16.8 
				119.7,24.3 131.2,24.3 131.2,26.7 			"/>
			<path class="st1" d="M136.6,15.9c0-6.7,4.9-11.3,11.2-11.3c3.9,0,6.5,1.8,8.3,4.3l-2.3,1.3c-1.2-1.9-3.5-3.2-6-3.2
				c-4.8,0-8.4,3.6-8.4,8.9c0,5.2,3.6,8.9,8.4,8.9c2.5,0,4.8-1.3,6-3.2l2.3,1.2c-1.8,2.5-4.4,4.3-8.3,4.3
				C141.6,27.1,136.6,22.5,136.6,15.9"/>
			<polygon class="st1" points="161.5,26.7 161.5,4.9 175.8,4.9 175.8,7.4 164.2,7.4 164.2,14.4 175.6,14.4 175.6,16.8 164.2,16.8 
				164.2,24.3 175.8,24.3 175.8,26.7 			"/>
			<polygon class="st1" points="197.5,26.7 184.8,9.3 184.8,26.7 182.1,26.7 182.1,4.9 184.9,4.9 197.4,22 197.4,4.9 200.1,4.9 
				200.1,26.7 			"/>
			<path class="st1" d="M222.7,26.7l-1.9-4.9h-10.8l-1.9,4.9h-3.1l8.8-21.8h3.4l8.8,21.8H222.7z M215.4,7.7l-4.6,11.8h9.2L215.4,7.7
				z"/>
			<polygon class="st1" points="229.6,26.7 229.6,24.5 241.9,7.4 229.6,7.4 229.6,4.9 245.4,4.9 245.4,7.2 233.1,24.3 245.6,24.3 
				245.6,26.7 			"/>
			<path class="st1" d="M250.2,15.9c0-6.8,5-11.3,11.2-11.3c3.9,0,6.6,1.7,8.5,4.1l-2.2,1.4c-1.4-1.8-3.7-3-6.3-3
				c-4.8,0-8.4,3.6-8.4,8.9c0,5.2,3.6,8.9,8.4,8.9c4.5,0,6.8-3.2,7.3-6.8h-9v-2.4h11.9c0,6.8-3.7,11.6-10.5,11.6
				C255.2,27.2,250.2,22.6,250.2,15.9"/>
			<path class="st1" d="M275.5,15.9c0-6.4,4.4-11.3,10.8-11.3c6.4,0,10.8,4.8,10.8,11.3c0,6.4-4.4,11.3-10.8,11.3
				C279.9,27.1,275.5,22.3,275.5,15.9 M294.3,15.9c0-5.1-3.2-8.9-8-8.9c-4.9,0-8,3.8-8,8.9c0,5.1,3.1,8.9,8,8.9
				C291.2,24.7,294.3,20.9,294.3,15.9"/>
			<path class="st2" d="M36.4,77.1L3,57.8V19.2L36.4-0.1l33.4,19.3v38.6L36.4,77.1z M6.1,56l30.4,17.5L66.8,56V21L36.4,3.5L6.1,21
				V56z M68.3,56.9L68.3,56.9L68.3,56.9z"/>
			<path class="st2" d="M54,66.9L29.5,52.7V24.3L54,10.1l15,8.7c0.7,0.4,1,1.4,0.6,2.1c-0.4,0.7-1.4,1-2.1,0.6L54,13.7L32.5,26.1
				v24.8L54,63.3l13.5-7.8c0.7-0.4,1.7-0.2,2.1,0.6c0.4,0.7,0.2,1.7-0.6,2.1L54,66.9z"/>
			<path class="st2" d="M19,66.9L4,58.2c-0.7-0.4-1-1.4-0.6-2.1c0.4-0.7,1.4-1,2.1-0.6L19,63.3l21.5-12.4V26.1L19,13.7L5.5,21.5
				c-0.7,0.4-1.7,0.2-2.1-0.6C3,20.2,3.2,19.2,4,18.8l15-8.7l24.6,14.2v28.4L19,66.9z"/>
		</g>
	</g>
	<g>
		<path class="st0" d="M129.3,67.1c0,0.5-0.1,0.9-0.2,1.2c-0.1,0.4-0.4,0.7-0.6,0.9c-0.3,0.3-0.6,0.5-1,0.6
			c-0.4,0.1-0.8,0.2-1.3,0.2h-5V59.8h4.7c1,0,1.8,0.2,2.3,0.7c0.5,0.5,0.8,1.2,0.8,2c0,0.4-0.1,0.8-0.3,1.2
			c-0.2,0.3-0.4,0.6-0.7,0.9c0.4,0.2,0.8,0.5,1,1C129.2,66,129.3,66.5,129.3,67.1z M123,61.6v2.3h2.8c0.3,0,0.6-0.1,0.9-0.3
			c0.2-0.2,0.3-0.5,0.3-0.8c0-0.3-0.1-0.6-0.3-0.8c-0.2-0.2-0.5-0.3-0.9-0.3H123z M127.3,67c0-0.4-0.1-0.8-0.4-1
			c-0.3-0.2-0.6-0.3-1.1-0.3H123v2.6h2.8c0.2,0,0.4,0,0.5-0.1c0.2,0,0.3-0.1,0.5-0.2c0.1-0.1,0.3-0.2,0.3-0.4
			C127.2,67.4,127.3,67.2,127.3,67z"/>
		<path class="st0" d="M136.9,70.1h-1.9v-0.7c-0.2,0.3-0.5,0.5-0.8,0.6c-0.3,0.2-0.7,0.2-1.1,0.2c-0.5,0-0.9-0.1-1.2-0.2
			c-0.4-0.2-0.7-0.4-0.9-0.7c-0.3-0.3-0.5-0.6-0.6-1c-0.1-0.4-0.2-0.9-0.2-1.4v-4.5h2v4.5c0,0.1,0,0.2,0,0.4c0,0.2,0.1,0.3,0.2,0.5
			c0.1,0.2,0.2,0.3,0.4,0.4c0.2,0.1,0.4,0.2,0.8,0.2c0.4,0,0.8-0.1,1.1-0.4c0.3-0.3,0.4-0.6,0.4-1.1v-4.5h2V70.1z"/>
		<path class="st0" d="M140,67c0.1,0.5,0.4,0.8,0.7,1.1c0.3,0.3,0.7,0.4,1.2,0.4c0.3,0,0.6-0.1,0.9-0.2c0.3-0.1,0.5-0.4,0.7-0.7h2.1
			c-0.2,0.8-0.7,1.4-1.3,1.9c-0.6,0.5-1.4,0.7-2.4,0.7c-0.5,0-1-0.1-1.5-0.3c-0.5-0.2-0.9-0.5-1.2-0.8c-0.4-0.4-0.6-0.8-0.8-1.3
			c-0.2-0.5-0.3-1-0.3-1.6c0-0.6,0.1-1.1,0.3-1.6c0.2-0.5,0.5-0.9,0.8-1.3c0.4-0.4,0.8-0.6,1.2-0.9c0.5-0.2,1-0.3,1.5-0.3
			c0.6,0,1.1,0.1,1.6,0.3c0.5,0.2,0.9,0.5,1.3,0.9c0.4,0.4,0.6,0.9,0.8,1.5c0.2,0.6,0.2,1.3,0.2,2H140z M143.8,65.4
			c-0.1-0.4-0.3-0.8-0.7-1.1c-0.3-0.3-0.7-0.4-1.2-0.4c-0.4,0-0.8,0.1-1.2,0.4c-0.3,0.3-0.6,0.6-0.7,1.1H143.8z"/>
		<path class="st0" d="M153.6,70.1h-2v-4.5c0-0.1,0-0.2,0-0.4c0-0.2-0.1-0.3-0.2-0.5c-0.1-0.2-0.2-0.3-0.4-0.4
			c-0.2-0.1-0.4-0.2-0.8-0.2c-0.4,0-0.8,0.1-1.1,0.4c-0.3,0.3-0.4,0.6-0.4,1.1v4.5h-2v-7.6h1.9v0.7c0.2-0.3,0.5-0.5,0.9-0.7
			c0.3-0.2,0.7-0.3,1.1-0.3c0.4,0,0.9,0.1,1.2,0.2c0.4,0.2,0.7,0.4,0.9,0.7c0.3,0.3,0.5,0.6,0.6,1.1c0.1,0.4,0.2,0.9,0.2,1.4V70.1z"
			/>
		<path class="st0" d="M158.4,62.3c0.5,0,1,0.1,1.5,0.3c0.5,0.2,0.9,0.5,1.2,0.8c0.3,0.4,0.6,0.8,0.8,1.3c0.2,0.5,0.3,1,0.3,1.6
			c0,0.6-0.1,1.1-0.3,1.6c-0.2,0.5-0.5,0.9-0.8,1.3c-0.3,0.4-0.8,0.6-1.2,0.8c-0.5,0.2-1,0.3-1.5,0.3c-0.5,0-1-0.1-1.5-0.3
			c-0.5-0.2-0.9-0.5-1.2-0.8c-0.3-0.4-0.6-0.8-0.8-1.3c-0.2-0.5-0.3-1-0.3-1.6c0-0.6,0.1-1.1,0.3-1.6c0.2-0.5,0.5-0.9,0.8-1.3
			c0.3-0.4,0.7-0.6,1.2-0.8C157.4,62.4,157.9,62.3,158.4,62.3z M158.4,68.5c0.3,0,0.5-0.1,0.7-0.2c0.2-0.1,0.4-0.3,0.6-0.4
			c0.2-0.2,0.3-0.4,0.4-0.7c0.1-0.3,0.1-0.6,0.1-0.9c0-0.3,0-0.6-0.1-0.9c-0.1-0.3-0.2-0.5-0.4-0.7c-0.2-0.2-0.4-0.3-0.6-0.5
			c-0.2-0.1-0.5-0.2-0.7-0.2s-0.5,0.1-0.7,0.2c-0.2,0.1-0.4,0.3-0.6,0.5c-0.2,0.2-0.3,0.4-0.4,0.7c-0.1,0.3-0.1,0.6-0.1,0.9
			c0,0.3,0,0.6,0.1,0.9c0.1,0.3,0.2,0.5,0.4,0.7c0.2,0.2,0.4,0.3,0.6,0.4C157.9,68.4,158.2,68.5,158.4,68.5z"/>
		<path class="st0" d="M169.8,67.7c0,0.4-0.1,0.7-0.2,1c-0.2,0.3-0.4,0.6-0.7,0.8c-0.3,0.2-0.6,0.4-1.1,0.5
			c-0.4,0.1-0.9,0.2-1.3,0.2c-0.5,0-0.9-0.1-1.3-0.2c-0.4-0.1-0.8-0.3-1.1-0.5c-0.3-0.2-0.6-0.5-0.8-0.8c-0.2-0.3-0.3-0.7-0.4-1.1h2
			c0.1,0.2,0.2,0.3,0.3,0.4c0.1,0.1,0.3,0.2,0.4,0.3c0.1,0.1,0.3,0.1,0.5,0.2c0.2,0,0.3,0,0.5,0c0.4,0,0.7-0.1,1-0.2
			c0.3-0.1,0.4-0.3,0.4-0.5c0-0.1,0-0.2-0.1-0.3c0-0.1-0.1-0.1-0.2-0.2c-0.1-0.1-0.3-0.1-0.5-0.2c-0.2-0.1-0.5-0.1-0.8-0.2
			c-0.3,0-0.7-0.1-1.1-0.2c-0.4-0.1-0.7-0.2-1-0.4c-0.3-0.2-0.6-0.4-0.8-0.7c-0.2-0.3-0.3-0.6-0.3-1c0-0.3,0.1-0.6,0.2-0.9
			c0.1-0.3,0.3-0.6,0.6-0.8c0.3-0.2,0.6-0.4,1-0.6c0.4-0.1,0.9-0.2,1.4-0.2c0.4,0,0.8,0.1,1.2,0.2c0.4,0.1,0.7,0.3,1,0.5
			c0.3,0.2,0.5,0.5,0.7,0.8c0.2,0.3,0.3,0.6,0.4,1h-2c-0.1-0.2-0.2-0.3-0.4-0.5c-0.2-0.1-0.5-0.2-0.9-0.2c-0.5,0-0.8,0.1-1,0.2
			c-0.2,0.1-0.3,0.3-0.3,0.4c0,0.2,0.1,0.3,0.4,0.4s0.6,0.2,1.1,0.3c0.5,0.1,0.9,0.2,1.3,0.3c0.4,0.1,0.7,0.2,1,0.4
			c0.3,0.2,0.5,0.4,0.7,0.7C169.7,66.9,169.8,67.3,169.8,67.7z"/>
	</g>
	<g>
		<path class="st0" d="M178.9,68l-0.7,2.1h-2.1l3.6-10.3h2.5l3.6,10.3h-2.1l-0.7-2.1H178.9z M180.9,62l-1.4,4.2h2.9L180.9,62z"/>
		<path class="st0" d="M188.5,61.6h-2v-1.8h2V61.6z M188.5,70.1h-2v-7.6h2V70.1z"/>
		<path class="st0" d="M196.8,66h-2v-0.4c0-0.1,0-0.2,0-0.4c0-0.2-0.1-0.3-0.2-0.5c-0.1-0.2-0.2-0.3-0.4-0.4
			c-0.2-0.1-0.4-0.2-0.8-0.2c-0.4,0-0.8,0.1-1.1,0.4c-0.3,0.3-0.4,0.6-0.4,1.1v4.5h-2v-7.6h1.9v0.7c0.2-0.3,0.5-0.5,0.9-0.7
			c0.3-0.2,0.7-0.3,1.1-0.3c0.4,0,0.9,0.1,1.2,0.2c0.4,0.2,0.7,0.4,0.9,0.7c0.3,0.3,0.5,0.6,0.6,1.1c0.1,0.4,0.2,0.9,0.2,1.4V66z"/>
		<path class="st0" d="M199.4,67c0.1,0.5,0.4,0.8,0.7,1.1c0.3,0.3,0.7,0.4,1.2,0.4c0.3,0,0.6-0.1,0.9-0.2c0.3-0.1,0.5-0.4,0.7-0.7
			h2.1c-0.2,0.8-0.7,1.4-1.3,1.9c-0.6,0.5-1.4,0.7-2.4,0.7c-0.5,0-1-0.1-1.5-0.3c-0.5-0.2-0.9-0.5-1.2-0.9c-0.4-0.4-0.6-0.8-0.8-1.3
			c-0.2-0.5-0.3-1-0.3-1.6s0.1-1.1,0.3-1.6c0.2-0.5,0.5-0.9,0.8-1.3c0.4-0.4,0.8-0.6,1.2-0.9c0.5-0.2,1-0.3,1.5-0.3
			c0.6,0,1.1,0.1,1.6,0.3c0.5,0.2,0.9,0.5,1.3,0.9c0.4,0.4,0.6,0.9,0.8,1.5c0.2,0.6,0.2,1.3,0.2,2H199.4z M203.2,65.4
			c-0.1-0.4-0.3-0.8-0.7-1.1c-0.3-0.3-0.7-0.4-1.2-0.4c-0.4,0-0.8,0.1-1.2,0.4c-0.3,0.3-0.6,0.6-0.7,1.1H203.2z"/>
		<path class="st0" d="M212.6,67.7c0,0.4-0.1,0.7-0.2,1c-0.2,0.3-0.4,0.6-0.7,0.8c-0.3,0.2-0.6,0.4-1.1,0.5
			c-0.4,0.1-0.9,0.2-1.3,0.2c-0.5,0-0.9-0.1-1.3-0.2c-0.4-0.1-0.8-0.3-1.1-0.5c-0.3-0.2-0.6-0.5-0.8-0.8c-0.2-0.3-0.3-0.7-0.4-1.1h2
			c0.1,0.2,0.2,0.3,0.3,0.4c0.1,0.1,0.3,0.2,0.4,0.3c0.1,0.1,0.3,0.1,0.5,0.2c0.2,0,0.3,0,0.5,0c0.4,0,0.7-0.1,1-0.2
			c0.3-0.1,0.4-0.3,0.4-0.5c0-0.1,0-0.2-0.1-0.3c0-0.1-0.1-0.1-0.2-0.2c-0.1-0.1-0.3-0.1-0.5-0.2c-0.2-0.1-0.5-0.1-0.8-0.2
			c-0.3,0-0.7-0.1-1.1-0.2c-0.4-0.1-0.7-0.2-1-0.4c-0.3-0.2-0.6-0.4-0.8-0.7c-0.2-0.3-0.3-0.6-0.3-1c0-0.3,0.1-0.6,0.2-0.9
			c0.1-0.3,0.3-0.6,0.6-0.8c0.3-0.2,0.6-0.4,1-0.6c0.4-0.1,0.9-0.2,1.4-0.2c0.4,0,0.8,0.1,1.2,0.2c0.4,0.1,0.7,0.3,1,0.5
			c0.3,0.2,0.5,0.5,0.7,0.8c0.2,0.3,0.3,0.6,0.4,1h-2c-0.1-0.2-0.2-0.3-0.4-0.5c-0.2-0.1-0.5-0.2-0.9-0.2c-0.5,0-0.8,0.1-1,0.2
			c-0.2,0.1-0.3,0.3-0.3,0.4c0,0.2,0.1,0.3,0.4,0.4c0.3,0.1,0.6,0.2,1.1,0.3c0.5,0.1,0.9,0.2,1.3,0.3c0.4,0.1,0.7,0.2,1,0.4
			c0.3,0.2,0.5,0.4,0.7,0.7C212.6,66.9,212.6,67.3,212.6,67.7z"/>
	</g>
	<g>
		<path class="st0" d="M227.9,66.8c-0.2,0.5-0.4,1-0.7,1.4c-0.3,0.4-0.6,0.8-1,1.1c-0.4,0.3-0.8,0.5-1.3,0.7c-0.5,0.2-1,0.2-1.6,0.2
			c-0.7,0-1.4-0.1-2-0.4c-0.6-0.3-1.1-0.7-1.6-1.1c-0.4-0.5-0.8-1-1-1.7c-0.3-0.7-0.4-1.4-0.4-2.1c0-0.7,0.1-1.4,0.4-2.1
			c0.3-0.7,0.6-1.2,1-1.7c0.4-0.5,1-0.9,1.6-1.1c0.6-0.3,1.3-0.4,2-0.4c0.6,0,1.1,0.1,1.6,0.2c0.5,0.2,0.9,0.4,1.3,0.7
			c0.4,0.3,0.7,0.7,1,1.1c0.3,0.4,0.5,0.9,0.7,1.4h-2.1c-0.2-0.5-0.6-0.9-1-1.2c-0.4-0.3-1-0.5-1.6-0.5c-0.4,0-0.8,0.1-1.2,0.3
			c-0.4,0.2-0.7,0.4-1,0.8c-0.3,0.3-0.5,0.7-0.6,1.1c-0.2,0.4-0.2,0.9-0.2,1.4c0,0.5,0.1,1,0.2,1.4c0.2,0.4,0.4,0.8,0.6,1.1
			c0.3,0.3,0.6,0.6,1,0.8c0.4,0.2,0.8,0.3,1.2,0.3c0.6,0,1.1-0.2,1.6-0.5c0.4-0.3,0.8-0.7,1-1.2H227.9z"/>
		<path class="st0" d="M230.9,61.6h-2v-1.8h2V61.6z M230.9,70.1h-2v-7.6h2V70.1z"/>
		<path class="st0" d="M239.1,70.1h-1.9v-0.7c-0.2,0.3-0.5,0.5-0.8,0.6c-0.3,0.2-0.7,0.2-1.1,0.2c-0.5,0-0.9-0.1-1.2-0.2
			c-0.4-0.2-0.7-0.4-0.9-0.7c-0.3-0.3-0.5-0.6-0.6-1.1c-0.1-0.4-0.2-0.9-0.2-1.4v-4.5h2v4.5c0,0.1,0,0.2,0,0.4
			c0,0.2,0.1,0.3,0.2,0.5c0.1,0.2,0.2,0.3,0.4,0.4c0.2,0.1,0.4,0.2,0.8,0.2c0.4,0,0.8-0.1,1.1-0.4c0.3-0.3,0.4-0.6,0.4-1.1v-4.5h2
			V70.1z"/>
		<path class="st0" d="M248,70.1h-1.9v-0.8c-0.3,0.3-0.7,0.6-1,0.7c-0.4,0.2-0.8,0.3-1.3,0.3c-0.5,0-1-0.1-1.4-0.3
			c-0.4-0.2-0.8-0.5-1.2-0.8c-0.3-0.4-0.6-0.8-0.8-1.3c-0.2-0.5-0.3-1-0.3-1.6c0-0.6,0.1-1.1,0.3-1.6c0.2-0.5,0.5-0.9,0.8-1.3
			c0.3-0.4,0.7-0.6,1.2-0.8c0.4-0.2,0.9-0.3,1.4-0.3c0.4,0,0.9,0.1,1.2,0.2c0.4,0.2,0.7,0.4,1,0.7v-4.1h2V70.1z M246,66.3
			c0-0.3-0.1-0.6-0.2-0.9c-0.1-0.3-0.2-0.5-0.4-0.7c-0.2-0.2-0.4-0.4-0.6-0.5c-0.2-0.1-0.5-0.2-0.8-0.2c-0.3,0-0.5,0.1-0.8,0.2
			c-0.2,0.1-0.4,0.3-0.6,0.5c-0.2,0.2-0.3,0.4-0.4,0.7c-0.1,0.3-0.2,0.6-0.2,0.9c0,0.3,0.1,0.6,0.2,0.8c0.1,0.3,0.2,0.5,0.4,0.7
			c0.2,0.2,0.4,0.3,0.6,0.4c0.2,0.1,0.5,0.2,0.8,0.2c0.3,0,0.5-0.1,0.8-0.2c0.2-0.1,0.4-0.3,0.6-0.5c0.2-0.2,0.3-0.4,0.4-0.7
			C246,66.8,246,66.6,246,66.3z"/>
		<path class="st0" d="M256.9,70.1H255v-0.8c-0.3,0.3-0.6,0.6-1,0.7c-0.4,0.2-0.8,0.3-1.3,0.3c-0.5,0-1-0.1-1.4-0.3
			c-0.4-0.2-0.8-0.5-1.2-0.8c-0.3-0.4-0.6-0.8-0.8-1.3c-0.2-0.5-0.3-1-0.3-1.6c0-0.6,0.1-1.1,0.3-1.6c0.2-0.5,0.5-0.9,0.8-1.3
			c0.3-0.4,0.7-0.6,1.2-0.8c0.4-0.2,0.9-0.3,1.4-0.3c0.5,0,0.9,0.1,1.3,0.3c0.4,0.2,0.7,0.4,1,0.7v-0.8h1.9V70.1z M254.9,66.3
			c0-0.3-0.1-0.6-0.2-0.9c-0.1-0.3-0.2-0.5-0.4-0.7c-0.2-0.2-0.4-0.4-0.6-0.5c-0.2-0.1-0.5-0.2-0.8-0.2c-0.3,0-0.5,0.1-0.8,0.2
			c-0.2,0.1-0.4,0.3-0.6,0.5c-0.2,0.2-0.3,0.4-0.4,0.7c-0.1,0.3-0.2,0.6-0.2,0.9c0,0.3,0.1,0.6,0.2,0.8c0.1,0.3,0.2,0.5,0.4,0.7
			c0.2,0.2,0.4,0.3,0.6,0.4c0.2,0.1,0.5,0.2,0.8,0.2c0.3,0,0.5-0.1,0.8-0.2c0.2-0.1,0.4-0.3,0.6-0.5c0.2-0.2,0.3-0.4,0.4-0.7
			C254.9,66.8,254.9,66.6,254.9,66.3z"/>
		<path class="st0" d="M265.8,70.1h-1.9v-0.8c-0.3,0.3-0.7,0.6-1,0.7c-0.4,0.2-0.8,0.3-1.3,0.3c-0.5,0-1-0.1-1.4-0.3
			c-0.4-0.2-0.8-0.5-1.2-0.8c-0.3-0.4-0.6-0.8-0.8-1.3c-0.2-0.5-0.3-1-0.3-1.6c0-0.6,0.1-1.1,0.3-1.6c0.2-0.5,0.5-0.9,0.8-1.3
			c0.3-0.4,0.7-0.6,1.2-0.8c0.4-0.2,0.9-0.3,1.4-0.3c0.4,0,0.9,0.1,1.2,0.2c0.4,0.2,0.7,0.4,1,0.7v-4.1h2V70.1z M263.8,66.3
			c0-0.3-0.1-0.6-0.2-0.9c-0.1-0.3-0.2-0.5-0.4-0.7c-0.2-0.2-0.4-0.4-0.6-0.5c-0.2-0.1-0.5-0.2-0.8-0.2c-0.3,0-0.5,0.1-0.8,0.2
			c-0.2,0.1-0.4,0.3-0.6,0.5c-0.2,0.2-0.3,0.4-0.4,0.7c-0.1,0.3-0.2,0.6-0.2,0.9c0,0.3,0.1,0.6,0.2,0.8c0.1,0.3,0.2,0.5,0.4,0.7
			c0.2,0.2,0.4,0.3,0.6,0.4c0.2,0.1,0.5,0.2,0.8,0.2c0.3,0,0.5-0.1,0.8-0.2c0.2-0.1,0.4-0.3,0.6-0.5c0.2-0.2,0.3-0.4,0.4-0.7
			C263.8,66.8,263.8,66.6,263.8,66.3z"/>
	</g>
	<path class="st0" d="M114.6,68.6l-5.1-9.8c-0.4-0.9-1.3-1.5-2.4-1.5h0h0c-1,0-1.9,0.6-2.4,1.5l-3.6,6.9c-0.4-0.7-1-1.3-1.8-1.6
		c0.9-0.6,1.4-1.6,1.4-2.8c0-1.3-0.7-2.5-1.8-3c-1-0.5-2.1-0.8-3.2-0.8h-5.3c-1.1,0-2,0.9-2,2v9.9c0,1.1,0.9,2,2,2h1.9h3.8
		c1.1,0,2.2-0.2,3.1-0.6l0.4-0.2c0,0,0,0,0.1,0c0.3,0.6,1,1,1.7,1c0.8,0,1.5-0.5,1.8-1.2c0.2-0.4,0.5-0.6,0.9-0.6h6
		c0.4,0,0.8,0.3,0.9,0.6c0.3,0.7,1,1.2,1.8,1.2c1.1,0,2-0.9,2-2C114.9,69.2,114.8,68.9,114.6,68.6"/>
</g>
</svg>
